<?xml version="1.0" encoding="UTF-8"?>
<!DOCTYPE svg PUBLIC "-//W3C//DTD SVG 1.1//EN" "http://www.w3.org/Graphics/SVG/1.1/DTD/svg11.dtd">
<!-- Creator: CorelDRAW 2021.5 -->
<svg xmlns="http://www.w3.org/2000/svg" xml:space="preserve" width="59.257mm" height="17.1791mm" version="1.1" style="shape-rendering:geometricPrecision; text-rendering:geometricPrecision; image-rendering:optimizeQuality; fill-rule:evenodd; clip-rule:evenodd"
viewBox="0 0 1486.12 430.84"
 xmlns:xlink="http://www.w3.org/1999/xlink"
 xmlns:xodm="http://www.corel.com/coreldraw/odm/2003">
 <defs>
  <style type="text/css">
   <![CDATA[
    .fil0 {fill:#FEFEFE;fill-rule:nonzero}
    .fil2 {fill:#FEFEFE;fill-rule:nonzero}
    .fil1 {fill:url(#id0)}
   ]]>
  </style>
  <linearGradient id="id0" gradientUnits="userSpaceOnUse" x1="-0" y1="215.42" x2="275.66" y2="215.42">
   <stop offset="0" style="stop-opacity:1; stop-color:#F3931E"/>
   <stop offset="1" style="stop-opacity:1; stop-color:#E9552C"/>
  </linearGradient>
 </defs>
 <g id="Слой_x0020_1">
  <metadata id="CorelCorpID_0Corel-Layer"/>
  <path class="fil0" d="M347.8 191.16c0,-10.37 16.3,-20.37 30.02,-24.48 -3.15,-17.87 -8.8,-34.88 -16.57,-50.65 -13.57,4.81 -33.52,7.03 -39.03,-2.51 -5.18,-8.97 3.92,-25.77 13.74,-36.19 -11.48,-13.63 -24.84,-25.62 -39.67,-35.58 -9.34,10.93 -25.5,22.83 -35.03,17.33 -2.95,-1.71 -4.99,-4.92 -6.28,-8.96l-20.94 30.79c21.75,8.02 40.71,21.82 54.99,39.54l2.91 0 -1.54 1.73c16.73,21.5 26.69,48.53 26.69,77.88 0,70.11 -56.83,126.94 -126.94,126.94 -1.3,0 -2.59,-0.02 -3.88,-0.06l8.84 -15.1c59.5,-2.59 106.94,-51.64 106.94,-111.78 0,-24.88 -8.13,-47.87 -21.86,-66.45l-5.62 6.28c12.14,16.98 19.29,37.75 19.29,60.17 0,53.82 -41.21,98.19 -93.73,103.22l52.61 -89.87 -71.59 89.95c-0.1,-0.01 -0.19,-0.01 -0.29,-0.03l-5.92 7.58c0.06,0.01 0.12,0.02 0.18,0.02l-52.81 66.35 2.93 1.99c16.45,5.97 33.96,9.74 52.16,10.93 2.63,-14.14 10.67,-32.52 21.67,-32.52 10.37,0 20.36,16.3 24.46,30.03 17.88,-3.16 34.89,-8.81 50.67,-16.57 -4.81,-13.56 -7.04,-33.51 2.5,-39.03 8.97,-5.18 25.76,3.93 36.18,13.74 13.63,-11.46 25.63,-24.83 35.59,-39.66 -10.93,-9.35 -22.83,-25.51 -17.33,-35.05 5.18,-8.98 24.32,-9.48 38.26,-6.18 5.97,-16.44 9.73,-33.95 10.93,-52.16 -14.15,-2.62 -32.52,-10.66 -32.52,-21.66z"/>
  <path class="fil1" d="M142.5 270.72l-7.89 16.89c-28.93,-18.42 -48.16,-50.77 -48.16,-87.53 0,-35.62 18.05,-67.09 45.48,-85.77l-27.4 57.38 68.78 0 -56.12 99.04 25.31 0zm-79.29 -70.65c0,-55.41 35.5,-102.52 84.99,-119.84l-9.86 20.64c-35.72,18.69 -60.1,56.1 -60.1,99.2 0,40.12 21.12,75.3 52.84,95.05l-6.41 13.72c-36.84,-22.22 -61.47,-62.62 -61.47,-108.77zm128.26 -76.26l84.19 -123.8 -89.14 0 -17.13 35.87c-5.54,-6.02 -10.14,-15.2 -12.61,-23.46 -17.87,3.15 -34.89,8.8 -50.67,16.57 4.82,13.58 7.04,33.53 -2.5,39.03 -8.97,5.18 -25.76,-3.92 -36.18,-13.74 -13.62,11.47 -25.62,24.82 -35.58,39.65 10.93,9.36 22.82,25.51 17.32,35.05 -5.18,8.98 -24.3,9.48 -38.24,6.18 -5.97,16.45 -9.73,33.96 -10.93,52.16 14.14,2.62 32.51,10.66 32.51,21.66 0.01,10.37 -16.3,20.37 -30.01,24.47 3.15,17.88 8.8,34.88 16.57,50.66 13.57,-4.81 33.52,-7.03 39.02,2.51 5.18,8.97 -3.91,25.76 -13.74,36.18 11.48,13.63 24.84,25.63 39.66,35.58 6.82,-7.97 17.25,-16.44 26.09,-18.32l-42.43 90.79 162.87 -208.54 -43.47 0 88.04 -98.49 -83.63 0z"/>
  <g id="_1803765342912">
   <path class="fil2" d="M513.92 253.82l-29.46 0 0 -148.31 48.2 0c35.16,0 52.73,15.24 52.73,45.73 0,23.76 -10.54,39.14 -31.62,46.14 -5.49,1.79 -12.12,2.88 -19.81,3.3 -0.55,0 -7.25,0 -20.05,0l0 53.14zm0 -121.73l0 42.02 15.31 0c18.23,0 27.33,-6.97 27.33,-20.91 0,-14.08 -8.82,-21.11 -26.5,-21.11l-16.14 0z"/>
   <path id="_1" class="fil2" d="M614.23 200.47c0,9.2 2.71,16.79 8.14,22.76 5.42,5.97 12.74,8.96 21.94,8.96 9.2,0 16.51,-2.99 21.94,-8.96 5.42,-5.97 8.14,-13.56 8.14,-22.76 0,-9.47 -2.68,-17.2 -8.03,-23.17 -5.36,-5.97 -12.7,-8.96 -22.04,-8.96 -9.2,0 -16.51,3.02 -21.94,9.06 -5.42,6.04 -8.14,13.73 -8.14,23.07zm87.54 -0.62c0,16.75 -5.39,30.42 -16.17,40.99 -10.78,10.57 -24.55,15.86 -41.3,15.86 -16.75,0 -30.52,-5.32 -41.3,-15.96 -10.78,-10.64 -16.17,-24.27 -16.17,-40.89 0,-16.2 5.52,-29.59 16.58,-40.16 11.05,-10.57 24.68,-15.86 40.89,-15.86 16.34,0 30,5.29 40.99,15.86 10.98,10.57 16.48,23.96 16.48,40.16z"/>
   <polygon id="_2" class="fil2" points="858.73,147.13 823.85,253.82 803.43,253.82 783.48,182.97 763.57,253.82 743.38,253.82 708.57,147.13 735.56,147.13 754.3,215.92 774.08,147.13 793.44,147.13 813.01,215.92 831.96,147.13 "/>
   <path id="_3" class="fil2" d="M946.07 220.25l27.19 0c-9.89,24.44 -27.19,36.67 -51.91,36.67 -16.34,0 -29.73,-5.32 -40.16,-15.96 -10.44,-10.64 -15.65,-24.13 -15.65,-40.48 0,-15.79 5.29,-29.18 15.86,-40.17 10.57,-10.98 23.76,-16.48 39.55,-16.48 12.09,0 22.69,3.16 31.83,9.47 9.13,6.31 15.76,15.17 19.88,26.57 2.61,7.14 3.91,16.82 3.91,29.04l-85.07 0c2.88,16.89 12.91,25.34 30.08,25.34 6.59,0 11.53,-0.75 14.83,-2.26 4.39,-2.2 7.62,-6.11 9.68,-11.74zm4.12 -30.9c-3.43,-15.11 -13.05,-22.66 -28.84,-22.66 -15.38,0 -25.13,7.55 -29.25,22.66l58.09 0z"/>
   <path id="_4" class="fil2" d="M1046.38 147.13l0 29.04c-1.79,-1.1 -5.63,-1.65 -11.53,-1.65 -9.89,0 -14.83,6.52 -14.83,19.57l0 59.73 -26.78 0 0 -106.7 25.54 0 0 12.15c1.92,-3.43 4.74,-6.56 8.45,-9.37 3.71,-2.81 7.35,-4.22 10.92,-4.22 2.88,0 5.63,0.48 8.24,1.44z"/>
   <polygon id="_5" class="fil2" points="1141.34,132.09 1112.09,132.09 1112.09,253.82 1082.22,253.82 1082.22,132.09 1052.97,132.09 1052.97,105.52 1141.34,105.52 "/>
   <path id="_6" class="fil2" d="M1218.17 220.25l27.19 0c-9.89,24.44 -27.19,36.67 -51.91,36.67 -16.34,0 -29.73,-5.32 -40.16,-15.96 -10.44,-10.64 -15.65,-24.13 -15.65,-40.48 0,-15.79 5.29,-29.18 15.86,-40.17 10.57,-10.98 23.76,-16.48 39.55,-16.48 12.09,0 22.69,3.16 31.83,9.47 9.13,6.31 15.76,15.17 19.88,26.57 2.61,7.14 3.91,16.82 3.91,29.04l-85.07 0c2.88,16.89 12.91,25.34 30.08,25.34 6.59,0 11.53,-0.75 14.83,-2.26 4.39,-2.2 7.62,-6.11 9.68,-11.74zm4.12 -30.9c-3.43,-15.11 -13.05,-22.66 -28.84,-22.66 -15.38,0 -25.13,7.55 -29.25,22.66l58.09 0z"/>
   <path id="_7" class="fil2" d="M1369.98 215.3c-3.16,13.05 -9.54,23.24 -19.16,30.59 -9.61,7.35 -21.22,11.02 -34.81,11.02 -16.34,0 -29.8,-5.32 -40.37,-15.96 -10.57,-10.64 -15.86,-24.13 -15.86,-40.48 0,-16.62 5.18,-30.18 15.55,-40.68 10.37,-10.51 23.86,-15.76 40.47,-15.76 14.01,0 25.68,3.43 35.02,10.3 9.75,7.28 16.07,17.65 18.95,31.1l-26.78 0c-5.36,-11.53 -14.69,-17.3 -28.01,-17.3 -9.2,0 -16.34,3.05 -21.42,9.17 -5.08,6.11 -7.62,13.83 -7.62,23.17 0,9.06 2.78,16.72 8.34,22.97 5.56,6.25 12.81,9.37 21.73,9.37 13.73,0 22.72,-5.84 26.98,-17.51l26.98 0z"/>
   <path id="_8" class="fil2" d="M1480.8 253.82l-26.78 0 0 -58.71c0,-17.58 -6.42,-26.37 -19.26,-26.37 -14.21,0 -21.32,10.16 -21.32,30.49l0 54.59 -26.78 0 0 -158.61 26.78 0 0 63.24c5.94,-9.2 15.21,-13.8 27.91,-13.8 12.94,0 22.86,3.91 29.73,11.74 6.49,7.55 9.72,17.85 9.72,30.9l0 66.53z"/>
   <polygon class="fil2" points="505.85,326.36 499.75,326.36 499.75,307.09 490.89,307.09 490.89,326.36 484.8,326.36 484.8,302.07 505.85,302.07 "/>
   <path id="_1_0" class="fil2" d="M536.65 314.36c0,3.47 -1.13,6.46 -3.38,8.96 -2.25,2.5 -5.09,3.75 -8.53,3.75 -3.09,0 -5.68,-1.09 -7.74,-3.28l0 12.99 -6.09 0 0 -34.69 5.95 0 0 2.95c1.99,-2.41 4.57,-3.61 7.74,-3.61 3.61,0 6.53,1.27 8.78,3.8 2.18,2.41 3.27,5.45 3.27,9.14zm-5.91 -0.09c0,-2.06 -0.66,-3.81 -1.99,-5.23 -1.33,-1.42 -3.01,-2.13 -5.04,-2.13 -1.94,0 -3.56,0.72 -4.88,2.16 -1.31,1.44 -1.97,3.14 -1.97,5.11 0,2.06 0.64,3.81 1.92,5.25 1.28,1.44 2.94,2.16 4.97,2.16 1.94,0 3.59,-0.73 4.95,-2.2 1.36,-1.47 2.04,-3.17 2.04,-5.11z"/>
   <path id="_2_1" class="fil2" d="M557.7 318.72l6.19 0c-2.25,5.56 -6.19,8.34 -11.81,8.34 -3.72,0 -6.77,-1.21 -9.14,-3.63 -2.38,-2.42 -3.56,-5.49 -3.56,-9.21 0,-3.59 1.2,-6.64 3.61,-9.14 2.41,-2.5 5.41,-3.75 9,-3.75 2.75,0 5.17,0.72 7.25,2.16 2.08,1.44 3.59,3.45 4.52,6.05 0.59,1.63 0.89,3.83 0.89,6.61l-19.36 0c0.66,3.84 2.94,5.77 6.85,5.77 1.5,0 2.62,-0.17 3.38,-0.52 1,-0.5 1.73,-1.39 2.2,-2.67zm0.94 -7.03c-0.78,-3.44 -2.97,-5.16 -6.56,-5.16 -3.5,0 -5.72,1.72 -6.66,5.16l13.22 0z"/>
   <polygon id="_3_2" class="fil2" points="596.71,326.36 590.9,326.36 591.04,310.7 584.71,326.36 580.49,326.36 574.21,310.7 574.35,326.36 568.49,326.36 568.49,302.07 576.36,302.07 582.6,318.9 588.83,302.07 596.71,302.07 "/>
   <polygon id="_4_3" class="fil2" points="624,326.36 617.9,326.36 617.9,310.88 607.3,326.36 601.82,326.36 601.82,302.07 607.92,302.07 607.92,317.22 618.51,302.07 624,302.07 "/>
   <path id="_5_4" class="fil2" d="M653.72 326.36l-5.91 0 0 -2.86c-1.85,2.34 -4.4,3.52 -7.64,3.52 -3.58,0 -6.51,-1.24 -8.78,-3.7 -2.27,-2.47 -3.41,-5.52 -3.41,-9.14 0,-3.59 1.12,-6.63 3.38,-9.1 2.25,-2.47 5.16,-3.7 8.72,-3.7 3.28,0 5.8,1.11 7.55,3.33l0 -2.63 6.09 0 0 24.29zm-5.91 -12.05c0,-2.06 -0.67,-3.82 -2.02,-5.27 -1.34,-1.45 -3.03,-2.18 -5.06,-2.18 -2,0 -3.64,0.72 -4.92,2.16 -1.28,1.44 -1.92,3.16 -1.92,5.16 0,1.97 0.66,3.7 1.99,5.18 1.33,1.48 2.98,2.23 4.95,2.23 1.91,0 3.55,-0.73 4.92,-2.2 1.37,-1.47 2.06,-3.15 2.06,-5.06z"/>
   <polygon id="_6_5" class="fil2" points="679.37,326.36 673.23,326.36 667.84,309.87 662.46,326.36 656.4,326.36 664.98,302.07 670.74,302.07 "/>
   <path id="_7_6" class="fil2" d="M701.6 318.9c0,2.63 -0.99,4.58 -2.95,5.86 -1.63,1.06 -3.83,1.6 -6.61,1.6l-9.89 0 0 -24.29 6.1 0 0 9.24c4.19,0 7.13,0.3 8.81,0.89 3.03,1.06 4.55,3.3 4.55,6.7zm-13.36 -2.86l0 5.58 3.56 0c2.38,0 3.56,-0.91 3.56,-2.72 0,-1.91 -1.28,-2.86 -3.84,-2.86l-3.28 0z"/>
   <polygon id="_8_7" class="fil2" points="726.87,326.36 720.77,326.36 720.77,316.37 711.68,316.37 711.68,326.36 705.58,326.36 705.58,302.07 711.68,302.07 711.68,311.59 720.77,311.59 720.77,302.07 726.87,302.07 "/>
   <path id="_9" class="fil2" d="M736.95 314.22c0,2.09 0.62,3.82 1.85,5.18 1.23,1.36 2.9,2.04 4.99,2.04 2.09,0 3.76,-0.68 4.99,-2.04 1.23,-1.36 1.85,-3.09 1.85,-5.18 0,-2.16 -0.61,-3.91 -1.83,-5.27 -1.22,-1.36 -2.89,-2.04 -5.02,-2.04 -2.09,0 -3.76,0.69 -4.99,2.06 -1.24,1.38 -1.85,3.12 -1.85,5.25zm19.93 -0.14c0,3.81 -1.23,6.92 -3.68,9.33 -2.45,2.41 -5.59,3.61 -9.4,3.61 -3.81,0 -6.95,-1.21 -9.4,-3.63 -2.45,-2.42 -3.68,-5.52 -3.68,-9.31 0,-3.69 1.26,-6.74 3.77,-9.14 2.52,-2.41 5.62,-3.61 9.31,-3.61 3.72,0 6.83,1.2 9.33,3.61 2.5,2.41 3.75,5.45 3.75,9.14z"/>
   <path id="_10" class="fil2" d="M777.78 318.72l6.19 0c-2.25,5.56 -6.19,8.34 -11.81,8.34 -3.72,0 -6.77,-1.21 -9.14,-3.63 -2.38,-2.42 -3.56,-5.49 -3.56,-9.21 0,-3.59 1.2,-6.64 3.61,-9.14 2.41,-2.5 5.41,-3.75 9,-3.75 2.75,0 5.17,0.72 7.25,2.16 2.08,1.44 3.59,3.45 4.52,6.05 0.59,1.63 0.89,3.83 0.89,6.61l-19.36 0c0.66,3.84 2.94,5.77 6.85,5.77 1.5,0 2.62,-0.17 3.38,-0.52 1,-0.5 1.73,-1.39 2.2,-2.67zm0.94 -7.03c-0.78,-3.44 -2.97,-5.16 -6.56,-5.16 -3.5,0 -5.72,1.72 -6.66,5.16l13.22 0z"/>
   <polygon id="_11" class="fil2" points="818.15,307.14 812.52,307.14 812.52,326.36 806.43,326.36 806.43,307.14 800.8,307.14 800.8,302.07 818.15,302.07 "/>
   <path id="_12" class="fil2" d="M825.93 314.22c0,2.09 0.62,3.82 1.85,5.18 1.23,1.36 2.9,2.04 4.99,2.04 2.09,0 3.76,-0.68 4.99,-2.04 1.23,-1.36 1.85,-3.09 1.85,-5.18 0,-2.16 -0.61,-3.91 -1.83,-5.27 -1.22,-1.36 -2.89,-2.04 -5.02,-2.04 -2.09,0 -3.76,0.69 -4.99,2.06 -1.24,1.38 -1.85,3.12 -1.85,5.25zm19.93 -0.14c0,3.81 -1.23,6.92 -3.68,9.33 -2.45,2.41 -5.59,3.61 -9.4,3.61 -3.81,0 -6.95,-1.21 -9.4,-3.63 -2.45,-2.42 -3.68,-5.52 -3.68,-9.31 0,-3.69 1.26,-6.74 3.77,-9.14 2.52,-2.41 5.62,-3.61 9.31,-3.61 3.72,0 6.83,1.2 9.33,3.61 2.5,2.41 3.75,5.45 3.75,9.14z"/>
   <polygon id="_13" class="fil2" points="870.71,326.36 864.61,326.36 864.61,307.09 855.75,307.09 855.75,326.36 849.66,326.36 849.66,302.07 870.71,302.07 "/>
   <polygon id="_14" class="fil2" points="896.4,326.36 890.26,326.36 884.87,309.87 879.49,326.36 873.43,326.36 882.01,302.07 887.77,302.07 "/>
   <polygon id="_15" class="fil2" points="921.3,326.36 915.2,326.36 915.2,310.88 904.6,326.36 899.12,326.36 899.12,302.07 905.22,302.07 905.22,317.22 915.81,302.07 921.3,302.07 "/>
   <path id="_16" class="fil2" d="M946.29 319.37c0,4.66 -3.25,6.99 -9.75,6.99l-10.13 0 0 -24.29 10.08 0c5.75,0 8.63,2.17 8.63,6.52 0,2.19 -1,3.81 -3,4.88l0 0.05c2.78,1.16 4.17,3.11 4.17,5.86zm-7.17 -10.31c0,-1.63 -1.1,-2.44 -3.28,-2.44l-3.42 0 0 5.25 3.28 0c2.28,0 3.42,-0.94 3.42,-2.81zm0.7 10.03c0,-2 -1.27,-3 -3.8,-3l-3.61 0 0 5.58 3.89 0c2.34,0 3.52,-0.86 3.52,-2.58z"/>
   <path id="_17" class="fil2" d="M955.29 314.22c0,2.09 0.62,3.82 1.85,5.18 1.23,1.36 2.9,2.04 4.99,2.04 2.09,0 3.76,-0.68 4.99,-2.04 1.23,-1.36 1.85,-3.09 1.85,-5.18 0,-2.16 -0.61,-3.91 -1.83,-5.27 -1.22,-1.36 -2.89,-2.04 -5.02,-2.04 -2.09,0 -3.76,0.69 -4.99,2.06 -1.24,1.38 -1.85,3.12 -1.85,5.25zm19.93 -0.14c0,3.81 -1.23,6.92 -3.68,9.33 -2.45,2.41 -5.59,3.61 -9.4,3.61 -3.81,0 -6.95,-1.21 -9.4,-3.63 -2.45,-2.42 -3.68,-5.52 -3.68,-9.31 0,-3.69 1.26,-6.74 3.77,-9.14 2.52,-2.41 5.62,-3.61 9.31,-3.61 3.72,0 6.83,1.2 9.33,3.61 2.5,2.41 3.75,5.45 3.75,9.14z"/>
   <polygon id="_18" class="fil2" points="1014.6,326.36 1008.5,326.36 1008.5,307.09 999.64,307.09 999.64,326.36 993.55,326.36 993.55,302.07 1014.6,302.07 "/>
   <path id="_19" class="fil2" d="M1045.4 314.36c0,3.47 -1.13,6.46 -3.38,8.96 -2.25,2.5 -5.09,3.75 -8.53,3.75 -3.09,0 -5.68,-1.09 -7.74,-3.28l0 12.99 -6.09 0 0 -34.69 5.95 0 0 2.95c1.99,-2.41 4.57,-3.61 7.74,-3.61 3.61,0 6.53,1.27 8.78,3.8 2.18,2.41 3.27,5.45 3.27,9.14zm-5.91 -0.09c0,-2.06 -0.66,-3.81 -1.99,-5.23 -1.33,-1.42 -3.01,-2.13 -5.04,-2.13 -1.94,0 -3.56,0.72 -4.88,2.16 -1.31,1.44 -1.97,3.14 -1.97,5.11 0,2.06 0.64,3.81 1.92,5.25 1.28,1.44 2.94,2.16 4.97,2.16 1.94,0 3.59,-0.73 4.95,-2.2 1.36,-1.47 2.04,-3.17 2.04,-5.11z"/>
   <polygon id="_20" class="fil2" points="1071.52,326.36 1065.42,326.36 1065.42,310.88 1054.82,326.36 1049.34,326.36 1049.34,302.07 1055.44,302.07 1055.44,317.22 1066.03,302.07 1071.52,302.07 "/>
   <polygon id="_21" class="fil2" points="1112.54,326.36 1105.32,326.36 1097.16,314.45 1097.16,326.36 1091.16,326.36 1091.16,302.07 1097.16,302.07 1097.16,313.28 1105.6,302.07 1112.35,302.07 1103.2,313.83 "/>
   <path id="_22" class="fil2" d="M1139.55 326.36l-5.91 0 0 -2.86c-1.85,2.34 -4.4,3.52 -7.64,3.52 -3.58,0 -6.51,-1.24 -8.78,-3.7 -2.27,-2.47 -3.41,-5.52 -3.41,-9.14 0,-3.59 1.12,-6.63 3.38,-9.1 2.25,-2.47 5.16,-3.7 8.72,-3.7 3.28,0 5.8,1.11 7.55,3.33l0 -2.63 6.09 0 0 24.29zm-5.91 -12.05c0,-2.06 -0.67,-3.82 -2.02,-5.27 -1.34,-1.45 -3.03,-2.18 -5.06,-2.18 -2,0 -3.64,0.72 -4.92,2.16 -1.28,1.44 -1.92,3.16 -1.92,5.16 0,1.97 0.66,3.7 1.99,5.18 1.33,1.48 2.98,2.23 4.95,2.23 1.91,0 3.55,-0.73 4.92,-2.2 1.37,-1.47 2.06,-3.15 2.06,-5.06z"/>
   <polygon id="_23" class="fil2" points="1177.71,302.07 1168.8,313.84 1177.8,326.36 1170.63,326.36 1162.71,314.45 1162.71,326.36 1156.85,326.36 1156.85,314.45 1148.97,326.36 1141.75,326.36 1150.75,313.84 1141.89,302.07 1148.64,302.07 1156.85,313.61 1156.85,302.07 1162.71,302.07 1162.71,313.58 1170.95,302.07 "/>
   <path id="_24" class="fil2" d="M1202.51 331.47l-5.16 0 0 -5.11 -14.53 0 0 5.11 -5.07 0 0 -10.13 2.63 0 6.52 -19.27 6.42 0 6.52 19.27 2.67 0 0 10.13zm-8.62 -10.13l-3.8 -12.05 -3.75 12.05 7.55 0z"/>
   <path id="_25" class="fil2" d="M1210.16 314.22c0,2.09 0.62,3.82 1.85,5.18 1.23,1.36 2.9,2.04 4.99,2.04 2.09,0 3.76,-0.68 4.99,-2.04 1.23,-1.36 1.85,-3.09 1.85,-5.18 0,-2.16 -0.61,-3.91 -1.83,-5.27 -1.22,-1.36 -2.89,-2.04 -5.02,-2.04 -2.09,0 -3.76,0.69 -4.99,2.06 -1.24,1.38 -1.85,3.12 -1.85,5.25zm19.93 -0.14c0,3.81 -1.23,6.92 -3.68,9.33 -2.45,2.41 -5.59,3.61 -9.4,3.61 -3.81,0 -6.95,-1.21 -9.4,-3.63 -2.45,-2.42 -3.68,-5.52 -3.68,-9.31 0,-3.69 1.26,-6.74 3.77,-9.14 2.52,-2.41 5.62,-3.61 9.31,-3.61 3.72,0 6.83,1.2 9.33,3.61 2.5,2.41 3.75,5.45 3.75,9.14z"/>
   <path id="_26" class="fil2" d="M1251.98 293.63c0,1.97 -0.66,3.66 -1.97,5.09 -1.31,1.42 -2.95,2.13 -4.92,2.13 -1.94,0 -3.57,-0.71 -4.9,-2.13 -1.33,-1.42 -1.99,-3.12 -1.99,-5.09l3.8 0c0,0.97 0.28,1.82 0.84,2.56 0.56,0.73 1.31,1.1 2.25,1.1 0.97,0 1.73,-0.36 2.27,-1.08 0.55,-0.72 0.82,-1.58 0.82,-2.58l3.8 0zm4.08 32.73l-6.09 0 0 -15.47 -10.6 15.47 -5.48 0 0 -24.29 6.09 0 0 15.18 10.56 -15.18 5.52 0 0 24.29z"/>
   <path id="_27" class="fil2" d="M1295.3 319.47c0,2.47 -1.2,4.41 -3.61,5.81 -2,1.16 -4.34,1.74 -7.03,1.74 -2.75,0 -5.06,-0.67 -6.94,-2.02 -2.09,-1.47 -3.24,-3.52 -3.42,-6.14l5.96 0c0.06,1.06 0.55,1.88 1.45,2.44 0.78,0.47 1.75,0.7 2.91,0.7 3.13,0 4.69,-0.94 4.69,-2.81 0,-1.44 -0.81,-2.36 -2.44,-2.77 -0.78,-0.22 -2.16,-0.33 -4.13,-0.33l0 -4.31c1.78,0 3.03,-0.1 3.75,-0.28 1.44,-0.41 2.16,-1.25 2.16,-2.53 0,-1.84 -1.22,-2.77 -3.66,-2.77 -2.6,0 -3.89,0.91 -3.89,2.72l-5.77 0c0.34,-5.06 3.55,-7.59 9.61,-7.59 2.6,0 4.75,0.53 6.47,1.59 2.03,1.25 3.05,3.09 3.05,5.54 0,2.31 -1.19,3.99 -3.56,5.02 2.94,0.97 4.41,2.97 4.41,6z"/>
   <path id="_28" class="fil2" d="M1323.85 326.36l-5.91 0 0 -2.86c-1.85,2.34 -4.4,3.52 -7.64,3.52 -3.58,0 -6.51,-1.24 -8.78,-3.7 -2.27,-2.47 -3.41,-5.52 -3.41,-9.14 0,-3.59 1.12,-6.63 3.38,-9.1 2.25,-2.47 5.16,-3.7 8.72,-3.7 3.28,0 5.8,1.11 7.55,3.33l0 -2.63 6.09 0 0 24.29zm-5.91 -12.05c0,-2.06 -0.67,-3.82 -2.02,-5.27 -1.34,-1.45 -3.03,-2.18 -5.06,-2.18 -2,0 -3.64,0.72 -4.92,2.16 -1.28,1.44 -1.92,3.16 -1.92,5.16 0,1.97 0.66,3.7 1.99,5.18 1.33,1.48 2.98,2.23 4.95,2.23 1.91,0 3.55,-0.73 4.92,-2.2 1.37,-1.47 2.06,-3.15 2.06,-5.06z"/>
   <polygon id="_29" class="fil2" points="1349.92,326.36 1343.83,326.36 1343.83,307.09 1334.97,307.09 1334.97,326.36 1328.87,326.36 1328.87,302.07 1349.92,302.07 "/>
   <path id="_30" class="fil2" d="M1380.73 314.36c0,3.47 -1.13,6.46 -3.38,8.96 -2.25,2.5 -5.09,3.75 -8.53,3.75 -3.09,0 -5.68,-1.09 -7.74,-3.28l0 12.99 -6.09 0 0 -34.69 5.95 0 0 2.95c1.99,-2.41 4.57,-3.61 7.74,-3.61 3.61,0 6.53,1.27 8.78,3.8 2.18,2.41 3.27,5.45 3.27,9.14zm-5.91 -0.09c0,-2.06 -0.66,-3.81 -1.99,-5.23 -1.33,-1.42 -3.01,-2.13 -5.04,-2.13 -1.94,0 -3.56,0.72 -4.88,2.16 -1.31,1.44 -1.97,3.14 -1.97,5.11 0,2.06 0.64,3.81 1.92,5.25 1.28,1.44 2.94,2.16 4.97,2.16 1.94,0 3.59,-0.73 4.95,-2.2 1.36,-1.47 2.04,-3.17 2.04,-5.11z"/>
   <path id="_31" class="fil2" d="M1409.33 326.36l-5.91 0 0 -2.86c-1.85,2.34 -4.4,3.52 -7.64,3.52 -3.58,0 -6.51,-1.24 -8.78,-3.7 -2.27,-2.47 -3.41,-5.52 -3.41,-9.14 0,-3.59 1.12,-6.63 3.38,-9.1 2.25,-2.47 5.16,-3.7 8.72,-3.7 3.28,0 5.8,1.11 7.55,3.33l0 -2.63 6.09 0 0 24.29zm-5.91 -12.05c0,-2.06 -0.67,-3.82 -2.02,-5.27 -1.34,-1.45 -3.03,-2.18 -5.06,-2.18 -2,0 -3.64,0.72 -4.92,2.16 -1.28,1.44 -1.92,3.16 -1.92,5.16 0,1.97 0.66,3.7 1.99,5.18 1.33,1.48 2.98,2.23 4.95,2.23 1.91,0 3.55,-0.73 4.92,-2.2 1.37,-1.47 2.06,-3.15 2.06,-5.06z"/>
   <path id="_32" class="fil2" d="M1434.27 319.37c0,4.66 -3.25,6.99 -9.75,6.99l-10.13 0 0 -24.29 10.08 0c5.75,0 8.63,2.17 8.63,6.52 0,2.19 -1,3.81 -3,4.88l0 0.05c2.78,1.16 4.17,3.11 4.17,5.86zm-7.17 -10.31c0,-1.63 -1.1,-2.44 -3.28,-2.44l-3.42 0 0 5.25 3.28 0c2.28,0 3.42,-0.94 3.42,-2.81zm0.7 10.03c0,-2 -1.27,-3 -3.8,-3l-3.61 0 0 5.58 3.89 0c2.34,0 3.52,-0.86 3.52,-2.58z"/>
   <polygon id="_33" class="fil2" points="1459.73,326.36 1452.51,326.36 1444.35,314.45 1444.35,326.36 1438.35,326.36 1438.35,302.07 1444.35,302.07 1444.35,313.28 1452.79,302.07 1459.54,302.07 1450.39,313.83 "/>
   <path id="_34" class="fil2" d="M1479.19 318.72l6.19 0c-2.25,5.56 -6.19,8.34 -11.81,8.34 -3.72,0 -6.77,-1.21 -9.14,-3.63 -2.38,-2.42 -3.56,-5.49 -3.56,-9.21 0,-3.59 1.2,-6.64 3.61,-9.14 2.41,-2.5 5.41,-3.75 9,-3.75 2.75,0 5.17,0.72 7.25,2.16 2.08,1.44 3.59,3.45 4.52,6.05 0.59,1.63 0.89,3.83 0.89,6.61l-19.36 0c0.66,3.84 2.94,5.77 6.85,5.77 1.5,0 2.62,-0.17 3.38,-0.52 1,-0.5 1.73,-1.39 2.2,-2.67zm0.94 -7.03c-0.78,-3.44 -2.97,-5.16 -6.56,-5.16 -3.5,0 -5.72,1.72 -6.66,5.16l13.22 0z"/>
  </g>
 </g>
</svg>
